<?xml version="1.0" encoding="utf-8"?>
<!-- Generator: Adobe Illustrator 15.0.0, SVG Export Plug-In . SVG Version: 6.00 Build 0)  -->
<!DOCTYPE svg PUBLIC "-//W3C//DTD SVG 1.1//EN" "http://www.w3.org/Graphics/SVG/1.1/DTD/svg11.dtd">
<svg version="1.1" id="Layer_1" xmlns="http://www.w3.org/2000/svg" xmlns:xlink="http://www.w3.org/1999/xlink" x="0px" y="0px"
	 width="1185.119px" height="288.029px" viewBox="0 0 1185.119 288.029" enable-background="new 0 0 1185.119 288.029"
	 xml:space="preserve">
<g>
	<path fill="#0F7AD2" d="M1167.705,113.838c0-50.97-88.82-92.275-198.393-92.275c-15.85,0-31.273,0.862-46.041,2.492
		c10.197-0.768,20.677-1.168,31.336-1.168c106.955,0,193.618,40.31,193.618,90.05c0,49.739-86.663,90.065-193.618,90.065
		c-28.185,0-54.975-2.806-79.132-7.846c27.935,6.999,59.882,10.957,93.837,10.957C1078.884,206.114,1167.705,164.8,1167.705,113.838
		"/>
	<path fill="#003F80" d="M1057.252,48.024c-29.321-10.464-65.995-16.679-105.78-16.679c-96.084,0-173.954,36.234-173.954,80.926
		c0,44.676,71.937,80.918,173.954,80.918c23.764,0,46.424-2.218,67.061-6.246c-17.164,2.768-35.584,4.248-54.756,4.248
		c-92.831,0-168.09-34.996-168.09-78.183c0-43.172,75.259-78.175,168.09-78.175C998.39,34.833,1030.525,39.684,1057.252,48.024"/>
	<polygon fill-rule="evenodd" clip-rule="evenodd" fill="#003F80" points="853.828,176.189 909.806,120.759 860.427,120.759 
		860.427,103.774 909.806,103.774 854.533,48.878 873.109,43.297 937.49,108.023 937.49,32.599 1008.171,103.774 1075.773,103.774 
		1095.25,112.271 1075.773,121.817 1008.171,121.817 939.653,191.693 937.49,192.155 937.49,116.503 873.218,181.095 	"/>
	<path fill-rule="evenodd" clip-rule="evenodd" fill="#003F80" d="M470.853,42.31h-11.474l-76.251,142.36c2.7-0.204,5.381,0,8.57,0
		c2.924,0,5.624-0.204,9.038,0c6.842-19.149,15.636-34.143,24.203-52.061h62.06c9.786,18.529,18.58,35.146,25.666,52.061
		c4.142-0.204,8.304,0,12.955,0c4.143,0,13.909-0.204,18.541,0L470.853,42.31z M483.343,121.128h-53.776l26.645-52.146
		L483.343,121.128z"/>
	<path fill-rule="evenodd" clip-rule="evenodd" fill="#003F80" d="M56.699,52.906c10.26-0.407,19.132-1.019,28.169,0.204
		c18.333,2.438,26.884,11.6,26.884,25.662c0,15.879-13.442,26.052-31.269,29.125c-12.47,2.03-20.371,1.215-23.784,1.011V52.906z
		 M27.44,184.669c3.433-0.203,7.085,0,10.761,0c3.414,0,14.579-0.203,18.498,0v-68.025h1.548l19.532,19.148l28.855,31.156
		c5.118,5.697,10.013,11.403,15.374,17.721c4.405-0.203,9.3,0,13.948,0c4.631,0,9.041-0.203,14.178,0l-4.655-5.095l-11.734-11.403
		l-50.339-53.157c24.69-3.668,53.02-12.149,53.02-35.764c0-20.567-19.536-33.884-57.162-33.884H27.44V184.669z"/>
	<path fill-rule="evenodd" clip-rule="evenodd" fill="#003F80" d="M241.43,42.31h-11.474l-76.231,142.36c2.684-0.204,5.38,0,8.55,0
		c2.924,0,5.628-0.204,9.034,0c6.846-19.149,15.64-34.143,24.207-52.061h62.056c9.79,18.529,18.58,35.146,25.67,52.061
		c4.161-0.204,8.304,0,12.956,0c4.142,0,13.908-0.204,18.56,0L241.43,42.31z M253.916,121.128h-53.768l26.641-52.146
		L253.916,121.128z"/>
	<path fill-rule="evenodd" clip-rule="evenodd" fill="#003F80" d="M320.867,184.669c3.414-0.203,7.089,0,10.742,0
		c3.433,0,14.602-0.203,18.501,0v-66.724h57.754v-11.89H350.11V57.869h11.087h52.268V45.366h-92.597V184.669z"/>
	<polygon fill-rule="evenodd" clip-rule="evenodd" fill="#003F80" points="582.253,57.868 593.32,57.868 645.607,57.868 
		645.607,45.367 552.994,45.367 552.994,184.05 647.072,184.05 647.072,171.548 582.253,171.548 582.253,117.945 612.39,117.945 
		639.987,117.945 639.987,106.056 612.39,106.056 582.253,106.056 	"/>
	<path fill-rule="evenodd" clip-rule="evenodd" fill="#003F80" d="M692.955,45.367c-3.896,0.204-14.844,0-18.271,0
		c-3.651,0-7.327,0.204-10.737,0V184.05h97.723v-12.502h-68.715V45.367z"/>
	<path fill="#003F80" d="M40.953,230.4l16.502,35.998h-8.832l-4.404-9.624H30.537l-4.626,9.624h-5.889L37.217,230.4H40.953z
		 M32.145,253.483h10.614l-5.22-11.38L32.145,253.483z"/>
	<path fill="#003F80" d="M61.809,231.167H74.6c3.282,0,6.301,0.383,9.055,1.15c2.755,0.767,5.125,1.889,7.113,3.363
		c1.988,1.478,3.534,3.288,4.639,5.432c1.105,2.145,1.658,4.594,1.658,7.349c0,2.474-0.467,4.803-1.398,6.989
		c-0.932,2.186-2.297,4.086-4.095,5.702c-1.797,1.617-4.004,2.895-6.618,3.835c-2.614,0.94-5.612,1.41-8.993,1.41H61.809V231.167z
		 M70.444,262.786h4.602c1.698,0,3.298-0.312,4.799-0.94c1.501-0.626,2.812-1.546,3.934-2.758c1.122-1.213,2.008-2.701,2.66-4.466
		c0.651-1.765,0.977-3.794,0.977-6.086c0-1.979-0.305-3.811-0.915-5.493c-0.611-1.682-1.465-3.142-2.561-4.379
		c-1.097-1.237-2.404-2.202-3.922-2.895c-1.517-0.692-3.175-1.039-4.972-1.039h-4.602V262.786z"/>
	<polygon fill="#003F80" points="107.159,231.167 118.812,255.512 129.599,231.167 135.166,231.167 119.307,266.942 
		115.249,266.942 98.228,231.167 	"/>
	<path fill="#003F80" d="M151.47,230.4l16.502,35.998h-8.832l-4.404-9.624h-13.682l-4.626,9.624h-5.889l17.195-35.998H151.47z
		 M142.662,253.483h10.614l-5.22-11.38L142.662,253.483z"/>
	<polygon fill="#003F80" points="172.326,231.167 177.843,231.167 197.932,253.583 197.932,231.167 203.351,231.167 
		203.351,266.942 199.615,266.942 177.793,242.202 177.793,266.398 172.326,266.398 	"/>
	<path fill="#003F80" d="M220.125,248.758c0,2.275,0.347,4.288,1.04,6.036c0.692,1.749,1.611,3.217,2.758,4.404
		c1.146,1.188,2.466,2.086,3.958,2.696c1.493,0.61,3.039,0.916,4.64,0.916c1.236,0,2.387-0.215,3.451-0.644s2.061-1.002,2.993-1.72
		c0.932-0.718,1.802-1.55,2.61-2.499c0.808-0.948,1.584-1.95,2.326-3.006l3.612,2.647c-0.775,1.254-1.711,2.458-2.808,3.612
		s-2.33,2.177-3.699,3.067c-1.369,0.891-2.861,1.601-4.478,2.128c-1.616,0.527-3.323,0.792-5.121,0.792
		c-3.035,0-5.826-0.441-8.375-1.324c-2.548-0.882-4.75-2.131-6.606-3.748c-1.855-1.616-3.302-3.554-4.342-5.813
		c-1.039-2.26-1.558-4.774-1.558-7.546c0-1.782,0.223-3.477,0.668-5.085c0.445-1.607,1.084-3.096,1.917-4.466
		c0.833-1.368,1.851-2.602,3.056-3.698c1.204-1.097,2.561-2.032,4.069-2.809c1.51-0.774,3.163-1.368,4.961-1.781
		c1.798-0.412,3.703-0.618,5.715-0.618c2.029,0,3.888,0.235,5.579,0.705c1.691,0.47,3.225,1.13,4.602,1.98
		c1.377,0.849,2.606,1.858,3.686,3.029c1.08,1.172,2.033,2.449,2.858,3.835l-3.662,2.549c-0.742-1.056-1.546-2.05-2.412-2.981
		c-0.866-0.932-1.793-1.748-2.783-2.449c-0.99-0.701-2.029-1.258-3.117-1.67c-1.089-0.412-2.227-0.619-3.415-0.619
		c-1.617,0-3.159,0.307-4.626,0.916c-1.469,0.61-2.759,1.509-3.872,2.696c-1.114,1.188-1.996,2.656-2.647,4.404
		C220.451,244.446,220.125,246.465,220.125,248.758"/>
	<polygon fill="#003F80" points="280.987,231.167 280.987,234.161 263.322,234.161 263.322,245.789 277.993,245.789 
		277.993,248.807 263.322,248.807 263.322,262.786 280.987,262.786 280.987,266.398 254.688,266.398 254.688,231.167 	"/>
	<path fill="#003F80" d="M288.161,231.167h12.791c3.282,0,6.301,0.383,9.055,1.15c2.755,0.767,5.125,1.889,7.113,3.363
		c1.988,1.478,3.534,3.288,4.639,5.432c1.105,2.145,1.658,4.594,1.658,7.349c0,2.474-0.467,4.803-1.398,6.989
		c-0.932,2.186-2.297,4.086-4.095,5.702c-1.797,1.617-4.004,2.895-6.618,3.835c-2.614,0.94-5.612,1.41-8.993,1.41h-14.152V231.167z
		 M296.796,262.786h4.602c1.698,0,3.298-0.312,4.799-0.94c1.501-0.626,2.812-1.546,3.934-2.758c1.122-1.213,2.008-2.701,2.66-4.466
		c0.651-1.765,0.977-3.794,0.977-6.086c0-1.979-0.305-3.811-0.915-5.493c-0.611-1.682-1.465-3.142-2.561-4.379
		c-1.097-1.237-2.404-2.202-3.922-2.895s-3.175-1.039-4.972-1.039h-4.602V262.786z"/>
	<path fill="#003F80" d="M344.818,231.167h12.791c3.282,0,6.301,0.383,9.055,1.15c2.755,0.767,5.125,1.889,7.113,3.363
		c1.988,1.478,3.534,3.288,4.639,5.432c1.105,2.145,1.658,4.594,1.658,7.349c0,2.474-0.467,4.803-1.398,6.989
		c-0.932,2.186-2.297,4.086-4.095,5.702c-1.797,1.617-4.004,2.895-6.618,3.835c-2.614,0.94-5.612,1.41-8.993,1.41h-14.152V231.167z
		 M353.453,262.786h4.602c1.698,0,3.298-0.312,4.799-0.94c1.501-0.626,2.812-1.546,3.934-2.758c1.122-1.213,2.008-2.701,2.66-4.466
		c0.651-1.765,0.977-3.794,0.977-6.086c0-1.979-0.305-3.811-0.916-5.493c-0.611-1.682-1.465-3.142-2.561-4.379
		c-1.097-1.237-2.404-2.202-3.922-2.895s-3.175-1.039-4.972-1.039h-4.602V262.786z"/>
	<polygon fill="#003F80" points="413.547,231.167 413.547,234.161 395.882,234.161 395.882,245.789 410.553,245.789 
		410.553,248.807 395.882,248.807 395.882,262.786 413.547,262.786 413.547,266.398 387.249,266.398 387.249,231.167 	"/>
	<polygon fill="#003F80" points="446.007,231.167 446.007,234.161 429.357,234.161 429.357,245.789 444.028,245.789 
		444.028,248.807 429.357,248.807 429.357,266.398 420.722,266.398 420.722,231.167 	"/>
	<polygon fill="#003F80" points="479.481,231.167 479.481,234.161 461.816,234.161 461.816,245.789 476.487,245.789 
		476.487,248.807 461.816,248.807 461.816,262.786 479.481,262.786 479.481,266.398 453.183,266.398 453.183,231.167 	"/>
	<polygon fill="#003F80" points="486.656,231.167 492.173,231.167 512.262,253.583 512.262,231.167 517.681,231.167 
		517.681,266.942 513.945,266.942 492.124,242.202 492.124,266.398 486.656,266.398 	"/>
	<path fill="#003F80" d="M538.438,266.942c-2.111,0-3.958-0.247-5.542-0.742c-1.583-0.494-2.932-1.179-4.045-2.053
		c-1.113-0.874-1.996-1.914-2.647-3.118c-0.652-1.203-1.101-2.523-1.349-3.958h5.988c0.214,0.874,0.519,1.694,0.915,2.462
		c0.396,0.767,0.899,1.431,1.509,1.991c0.61,0.561,1.336,1.002,2.177,1.324c0.842,0.322,1.815,0.482,2.92,0.482
		c0.742,0,1.472-0.078,2.189-0.235c0.718-0.156,1.361-0.408,1.93-0.755s1.027-0.804,1.373-1.373c0.347-0.569,0.52-1.266,0.52-2.091
		c0-1.055-0.269-1.987-0.804-2.795c-0.536-0.809-1.246-1.547-2.128-2.215c-0.882-0.668-1.889-1.29-3.018-1.868
		c-1.13-0.578-2.28-1.158-3.451-1.743c-1.172-0.585-2.322-1.196-3.452-1.831s-2.136-1.349-3.018-2.141
		c-0.883-0.792-1.592-1.683-2.128-2.672s-0.804-2.128-0.804-3.414c0-1.402,0.305-2.701,0.915-3.896
		c0.61-1.196,1.497-2.23,2.66-3.105c1.163-0.874,2.585-1.559,4.268-2.054c1.682-0.494,3.595-0.742,5.74-0.742
		c1.781,0,3.389,0.248,4.824,0.742c1.435,0.495,2.701,1.167,3.798,2.017s2.02,1.852,2.771,3.006c0.75,1.155,1.323,2.4,1.719,3.736
		h-5.443c-0.313-0.842-0.677-1.642-1.089-2.4c-0.412-0.758-0.923-1.426-1.533-2.004c-0.611-0.576-1.345-1.033-2.202-1.373
		c-0.858-0.338-1.889-0.507-3.093-0.507c-1.122,0-2.07,0.148-2.845,0.445s-1.402,0.672-1.88,1.126
		c-0.479,0.453-0.821,0.961-1.027,1.521c-0.206,0.561-0.309,1.113-0.309,1.657c0,0.94,0.276,1.794,0.828,2.561
		c0.553,0.768,1.287,1.477,2.202,2.128c0.916,0.651,1.951,1.278,3.105,1.88c1.155,0.603,2.338,1.209,3.551,1.819
		c1.212,0.609,2.4,1.245,3.562,1.904c1.163,0.66,2.202,1.39,3.117,2.189c0.916,0.801,1.65,1.687,2.203,2.66
		c0.552,0.974,0.828,2.07,0.828,3.29c0,1.436-0.297,2.768-0.89,3.997c-0.594,1.228-1.472,2.3-2.635,3.215
		c-1.163,0.916-2.607,1.633-4.33,2.152C542.666,266.682,540.681,266.942,538.438,266.942"/>
	<polygon fill="#003F80" points="585.743,231.167 585.743,234.161 568.078,234.161 568.078,245.789 582.749,245.789 
		582.749,248.807 568.078,248.807 568.078,262.786 585.743,262.786 585.743,266.398 559.444,266.398 559.444,231.167 	"/>
	<path fill="#003F80" d="M619.242,266.942c-2.111,0-3.958-0.247-5.542-0.742c-1.583-0.494-2.932-1.179-4.045-2.053
		s-1.996-1.914-2.647-3.118c-0.651-1.203-1.101-2.523-1.349-3.958h5.987c0.215,0.874,0.52,1.694,0.916,2.462
		c0.396,0.767,0.898,1.431,1.509,1.991s1.336,1.002,2.178,1.324c0.841,0.322,1.813,0.482,2.919,0.482
		c0.742,0,1.472-0.078,2.189-0.235c0.718-0.156,1.362-0.408,1.93-0.755c0.569-0.347,1.027-0.804,1.373-1.373
		c0.347-0.569,0.52-1.266,0.52-2.091c0-1.055-0.268-1.987-0.804-2.795c-0.536-0.809-1.245-1.547-2.128-2.215
		s-1.889-1.29-3.019-1.868s-2.28-1.158-3.451-1.743s-2.321-1.196-3.451-1.831s-2.136-1.349-3.019-2.141
		c-0.881-0.792-1.592-1.683-2.127-2.672c-0.537-0.989-0.805-2.128-0.805-3.414c0-1.402,0.305-2.701,0.916-3.896
		c0.609-1.196,1.496-2.23,2.659-3.105c1.163-0.874,2.585-1.559,4.269-2.054c1.682-0.494,3.595-0.742,5.739-0.742
		c1.781,0,3.39,0.248,4.824,0.742c1.436,0.495,2.7,1.167,3.798,2.017s2.021,1.852,2.771,3.006c0.751,1.155,1.325,2.4,1.72,3.736
		h-5.443c-0.313-0.842-0.676-1.642-1.088-2.4c-0.413-0.758-0.924-1.426-1.534-2.004c-0.61-0.576-1.345-1.033-2.201-1.373
		c-0.858-0.338-1.89-0.507-3.094-0.507c-1.121,0-2.069,0.148-2.845,0.445s-1.402,0.672-1.88,1.126
		c-0.479,0.453-0.821,0.961-1.027,1.521s-0.31,1.113-0.31,1.657c0,0.94,0.277,1.794,0.829,2.561
		c0.553,0.768,1.287,1.477,2.202,2.128s1.95,1.278,3.104,1.88c1.154,0.603,2.339,1.209,3.551,1.819
		c1.212,0.609,2.399,1.245,3.562,1.904c1.163,0.66,2.202,1.39,3.117,2.189c0.916,0.801,1.649,1.687,2.203,2.66
		c0.552,0.974,0.828,2.07,0.828,3.29c0,1.436-0.297,2.768-0.891,3.997c-0.594,1.228-1.473,2.3-2.635,3.215
		c-1.163,0.916-2.606,1.633-4.33,2.152C623.469,266.682,621.485,266.942,619.242,266.942"/>
	<polygon fill="#003F80" points="644.971,231.167 656.575,247.026 667.436,231.167 673.275,231.167 659.543,251.158 
		659.543,266.398 650.884,266.398 650.884,251.677 635.916,231.167 	"/>
	<path fill="#003F80" d="M688.862,266.942c-2.111,0-3.958-0.247-5.542-0.742c-1.583-0.494-2.932-1.179-4.045-2.053
		s-1.996-1.914-2.647-3.118c-0.651-1.203-1.101-2.523-1.349-3.958h5.987c0.215,0.874,0.52,1.694,0.916,2.462
		c0.396,0.767,0.898,1.431,1.509,1.991c0.609,0.561,1.336,1.002,2.178,1.324c0.841,0.322,1.813,0.482,2.919,0.482
		c0.742,0,1.472-0.078,2.189-0.235c0.718-0.156,1.361-0.408,1.93-0.755c0.569-0.347,1.027-0.804,1.373-1.373
		c0.347-0.569,0.519-1.266,0.519-2.091c0-1.055-0.267-1.987-0.803-2.795c-0.536-0.809-1.245-1.547-2.128-2.215
		s-1.889-1.29-3.019-1.868s-2.28-1.158-3.451-1.743s-2.321-1.196-3.451-1.831s-2.136-1.349-3.019-2.141
		c-0.882-0.792-1.592-1.683-2.128-2.672s-0.804-2.128-0.804-3.414c0-1.402,0.304-2.701,0.916-3.896
		c0.609-1.196,1.496-2.23,2.659-3.105c1.163-0.874,2.585-1.559,4.268-2.054c1.683-0.494,3.596-0.742,5.74-0.742
		c1.781,0,3.39,0.248,4.824,0.742c1.435,0.495,2.7,1.167,3.798,2.017c1.097,0.85,2.021,1.852,2.771,3.006
		c0.751,1.155,1.324,2.4,1.72,3.736h-5.443c-0.313-0.842-0.676-1.642-1.088-2.4c-0.413-0.758-0.924-1.426-1.534-2.004
		c-0.61-0.576-1.345-1.033-2.201-1.373c-0.858-0.338-1.89-0.507-3.094-0.507c-1.121,0-2.069,0.148-2.845,0.445
		s-1.402,0.672-1.88,1.126c-0.479,0.453-0.821,0.961-1.027,1.521s-0.31,1.113-0.31,1.657c0,0.94,0.276,1.794,0.829,2.561
		c0.553,0.768,1.287,1.477,2.201,2.128c0.915,0.651,1.951,1.278,3.105,1.88c1.154,0.603,2.339,1.209,3.551,1.819
		c1.212,0.609,2.399,1.245,3.562,1.904c1.163,0.66,2.202,1.39,3.117,2.189c0.916,0.801,1.649,1.687,2.202,2.66
		s0.829,2.07,0.829,3.29c0,1.436-0.297,2.768-0.891,3.997c-0.594,1.228-1.473,2.3-2.635,3.215c-1.163,0.916-2.606,1.633-4.33,2.152
		S691.105,266.942,688.862,266.942"/>
	<polygon fill="#003F80" points="740.421,231.167 740.421,234.161 728.224,234.161 728.224,266.398 719.589,266.398 
		719.589,234.161 707.392,234.161 707.392,231.167 	"/>
	<polygon fill="#003F80" points="772.906,231.167 772.906,234.161 755.241,234.161 755.241,245.789 769.913,245.789 
		769.913,248.807 755.241,248.807 755.241,262.786 772.906,262.786 772.906,266.398 746.607,266.398 746.607,231.167 	"/>
	<polygon fill="#003F80" points="780.082,231.167 788.493,231.167 800.666,255.24 812.689,231.167 820.928,231.167 820.928,266.398 
		812.293,266.398 812.293,243.439 800.789,266.398 797.449,266.398 785.548,243.167 785.548,266.398 780.082,266.398 	"/>
	<path fill="#003F80" d="M841.685,266.942c-2.111,0-3.958-0.247-5.542-0.742c-1.583-0.494-2.933-1.179-4.045-2.053
		c-1.113-0.874-1.996-1.914-2.647-3.118c-0.651-1.203-1.101-2.523-1.349-3.958h5.987c0.215,0.874,0.52,1.694,0.916,2.462
		c0.396,0.767,0.898,1.431,1.509,1.991s1.336,1.002,2.178,1.324c0.841,0.322,1.813,0.482,2.919,0.482
		c0.742,0,1.471-0.078,2.189-0.235c0.718-0.156,1.361-0.408,1.93-0.755c0.569-0.347,1.027-0.804,1.373-1.373
		c0.347-0.569,0.519-1.266,0.519-2.091c0-1.055-0.267-1.987-0.803-2.795c-0.536-0.809-1.245-1.547-2.128-2.215
		s-1.889-1.29-3.019-1.868c-1.131-0.578-2.28-1.158-3.451-1.743s-2.321-1.196-3.451-1.831s-2.136-1.349-3.019-2.141
		c-0.882-0.792-1.592-1.683-2.127-2.672c-0.537-0.989-0.805-2.128-0.805-3.414c0-1.402,0.305-2.701,0.916-3.896
		c0.609-1.196,1.496-2.23,2.659-3.105c1.163-0.874,2.585-1.559,4.268-2.054c1.683-0.494,3.596-0.742,5.74-0.742
		c1.781,0,3.389,0.248,4.824,0.742c1.435,0.495,2.7,1.167,3.798,2.017c1.097,0.85,2.021,1.852,2.771,3.006
		c0.751,1.155,1.324,2.4,1.72,3.736h-5.443c-0.313-0.842-0.676-1.642-1.088-2.4c-0.413-0.758-0.924-1.426-1.534-2.004
		c-0.61-0.576-1.345-1.033-2.202-1.373c-0.857-0.338-1.889-0.507-3.093-0.507c-1.121,0-2.069,0.148-2.845,0.445
		s-1.402,0.672-1.88,1.126c-0.479,0.453-0.821,0.961-1.027,1.521s-0.31,1.113-0.31,1.657c0,0.94,0.276,1.794,0.829,2.561
		c0.553,0.768,1.286,1.477,2.202,2.128c0.914,0.651,1.95,1.278,3.104,1.88c1.154,0.603,2.339,1.209,3.551,1.819
		c1.212,0.609,2.399,1.245,3.562,1.904c1.163,0.66,2.202,1.39,3.116,2.189c0.916,0.801,1.65,1.687,2.203,2.66s0.829,2.07,0.829,3.29
		c0,1.436-0.297,2.768-0.891,3.997c-0.595,1.228-1.474,2.3-2.635,3.215c-1.163,0.916-2.606,1.633-4.33,2.152
		S843.928,266.942,841.685,266.942"/>
	<polygon fill="#003F80" points="876.917,231.167 885.55,231.167 885.55,262.786 903.537,262.786 903.537,266.398 876.917,266.398 	
		"/>
	<polygon fill="#003F80" points="934.512,231.167 934.512,234.161 922.315,234.161 922.315,266.398 913.68,266.398 913.68,234.161 
		901.483,234.161 901.483,231.167 	"/>
	<path fill="#003F80" d="M940.698,231.167h12.79c3.281,0,6.301,0.383,9.056,1.15c2.754,0.767,5.125,1.889,7.113,3.363
		c1.986,1.478,3.532,3.288,4.639,5.432c1.104,2.145,1.657,4.594,1.657,7.349c0,2.474-0.466,4.803-1.397,6.989
		c-0.933,2.186-2.297,4.086-4.095,5.702c-1.798,1.617-4.004,2.895-6.618,3.835s-5.613,1.41-8.993,1.41h-14.151V231.167z
		 M949.332,262.786h4.602c1.699,0,3.299-0.312,4.799-0.94c1.502-0.626,2.813-1.546,3.936-2.758c1.121-1.213,2.008-2.701,2.659-4.466
		s0.978-3.794,0.978-6.086c0-1.979-0.306-3.811-0.916-5.493c-0.61-1.682-1.464-3.142-2.561-4.379
		c-1.098-1.237-2.404-2.202-3.921-2.895c-1.518-0.692-3.177-1.039-4.974-1.039h-4.602V262.786z"/>
	<path fill="#003F80" d="M979.564,263.379c0-0.494,0.091-0.96,0.271-1.396c0.183-0.438,0.434-0.817,0.756-1.14
		c0.321-0.321,0.701-0.577,1.138-0.767c0.438-0.189,0.903-0.284,1.397-0.284c0.495,0,0.966,0.095,1.411,0.284
		s0.828,0.445,1.15,0.767c0.321,0.322,0.577,0.701,0.767,1.14c0.189,0.437,0.284,0.902,0.284,1.396c0,0.495-0.095,0.961-0.284,1.398
		c-0.189,0.437-0.445,0.816-0.767,1.138c-0.322,0.321-0.705,0.573-1.15,0.755c-0.445,0.181-0.916,0.272-1.411,0.272
		c-0.494,0-0.96-0.092-1.397-0.272c-0.437-0.182-0.816-0.434-1.138-0.755c-0.322-0.321-0.573-0.701-0.756-1.138
		C979.655,264.34,979.564,263.875,979.564,263.379"/>
</g>
</svg>
