<?xml version="1.0" encoding="UTF-8" standalone="no"?>
<!-- Created with Inkscape (http://www.inkscape.org/) -->

<svg
   xmlns:dc="http://purl.org/dc/elements/1.1/"
   xmlns:cc="http://creativecommons.org/ns#"
   xmlns:rdf="http://www.w3.org/1999/02/22-rdf-syntax-ns#"
   xmlns:svg="http://www.w3.org/2000/svg"
   xmlns="http://www.w3.org/2000/svg"
   xmlns:sodipodi="http://sodipodi.sourceforge.net/DTD/sodipodi-0.dtd"
   xmlns:inkscape="http://www.inkscape.org/namespaces/inkscape"
   id="svg4176"
   version="1.1"
   inkscape:version="0.91 r13725"
   xml:space="preserve"
   width="267.29126"
   height="104.375"
   viewBox="0 0 267.29126 104.375"
   sodipodi:docname="Logo_Color_Black.svg"><metadata
     id="metadata4182"><rdf:RDF><cc:Work
         rdf:about=""><dc:format>image/svg+xml</dc:format><dc:type
           rdf:resource="http://purl.org/dc/dcmitype/StillImage" /><dc:title></dc:title></cc:Work></rdf:RDF></metadata><defs
     id="defs4180"><clipPath
       clipPathUnits="userSpaceOnUse"
       id="clipPath4194"><path
         d="m 0,83.5 213.833,0 0,-83.5 L 0,0 0,83.5 Z"
         id="path4196"
         inkscape:connector-curvature="0" /></clipPath></defs><sodipodi:namedview
     pagecolor="#ffffff"
     bordercolor="#666666"
     borderopacity="1"
     objecttolerance="10"
     gridtolerance="10"
     guidetolerance="10"
     inkscape:pageopacity="0"
     inkscape:pageshadow="2"
     inkscape:window-width="715"
     inkscape:window-height="480"
     id="namedview4178"
     showgrid="false"
     inkscape:zoom="0.88293198"
     inkscape:cx="133.64563"
     inkscape:cy="97.491103"
     inkscape:window-x="0"
     inkscape:window-y="0"
     inkscape:window-maximized="1"
     inkscape:current-layer="g4184" /><g
     id="g4184"
     inkscape:groupmode="layer"
     inkscape:label="AGI_logo_Horiz"
     transform="matrix(1.25,0,0,-1.25,0,104.375)"><g
       id="g4186"
       transform="translate(135.3281,39.8491)"><path
         d="m 0,0 -8.002,-17.854 15.953,0 L 0,0 Z m 17.854,-30.657 -4.251,0 -4.101,9.252 -19.054,0 -4.151,-9.252 -4.051,0 15.953,35.258 3.701,0 15.954,-35.258 z"
         style="fill:#231f20;fill-opacity:1;fill-rule:nonzero;stroke:none"
         id="path4188"
         inkscape:connector-curvature="0" /></g><g
       id="g4190"><g
         id="g4192"
         clip-path="url(#clipPath4194)"><g
           id="g4198"
           transform="translate(175.338,8.5921)"><path
             d="m 0,0 c -11.003,0 -17.804,8.002 -17.804,18.054 0,9.652 7.052,18.154 17.554,18.154 5.901,0 9.552,-1.701 13.053,-4.651 l -2.551,-3.001 c -2.7,2.351 -5.701,4.001 -10.652,4.001 -7.751,0 -13.303,-6.551 -13.303,-14.403 0,-8.402 5.351,-14.603 13.853,-14.603 4.001,0 7.702,1.55 10.102,3.501 l 0,8.702 -10.652,0 0,3.55 14.453,0 0,-13.953 C 10.802,2.451 5.901,0 0,0"
             style="fill:#231f20;fill-opacity:1;fill-rule:nonzero;stroke:none"
             id="path4200"
             inkscape:connector-curvature="0" /></g><path
           d="m 203.096,9.192 -3.951,0 0,35.007 3.951,0 0,-35.007 z"
           style="fill:#231f20;fill-opacity:1;fill-rule:nonzero;stroke:none"
           id="path4202"
           inkscape:connector-curvature="0" /><g
           id="g4204"
           transform="translate(54.5994,19.0992)"><path
             d="M 0,0 C 3.168,9.283 10.087,16.823 18.927,20.794 L 34.065,0 0,0 Z m 4.574,57.098 -48.725,-66.931 12.076,0 36.649,50.342 8.507,-11.685 C -1.129,21.635 -11.029,7.073 -11.618,-9.833 l 64.917,0 -48.725,66.931 z"
             style="fill:#c38c40;fill-opacity:1;fill-rule:nonzero;stroke:none"
             id="path4206"
             inkscape:connector-curvature="0" /></g></g></g></g></svg>