<?xml version="1.0" encoding="UTF-8" standalone="no"?>
<!-- Created with Inkscape (http://www.inkscape.org/) -->

<svg
   xmlns:dc="http://purl.org/dc/elements/1.1/"
   xmlns:cc="http://creativecommons.org/ns#"
   xmlns:rdf="http://www.w3.org/1999/02/22-rdf-syntax-ns#"
   xmlns:svg="http://www.w3.org/2000/svg"
   xmlns="http://www.w3.org/2000/svg"
   xmlns:sodipodi="http://sodipodi.sourceforge.net/DTD/sodipodi-0.dtd"
   xmlns:inkscape="http://www.inkscape.org/namespaces/inkscape"
   id="svg4208"
   version="1.1"
   inkscape:version="0.91 r13725"
   xml:space="preserve"
   width="296.20001"
   height="68.824997"
   viewBox="0 0 296.20001 68.824997"
   sodipodi:docname="Logo_Color.svg"><metadata
     id="metadata4214"><rdf:RDF><cc:Work
         rdf:about=""><dc:format>image/svg+xml</dc:format><dc:type
           rdf:resource="http://purl.org/dc/dcmitype/StillImage" /><dc:title></dc:title></cc:Work></rdf:RDF></metadata><defs
     id="defs4212" /><sodipodi:namedview
     pagecolor="#ffffff"
     bordercolor="#666666"
     borderopacity="1"
     objecttolerance="10"
     gridtolerance="10"
     guidetolerance="10"
     inkscape:pageopacity="0"
     inkscape:pageshadow="2"
     inkscape:window-width="1440"
     inkscape:window-height="841"
     id="namedview4210"
     showgrid="false"
     inkscape:zoom="1.1613774"
     inkscape:cx="40.899711"
     inkscape:cy="34.412498"
     inkscape:window-x="-8"
     inkscape:window-y="-8"
     inkscape:window-maximized="1"
     inkscape:current-layer="g4216" /><g
     id="g4216"
     inkscape:groupmode="layer"
     inkscape:label="ink_ext_XXXXXX"
     transform="matrix(1.25,0,0,-1.25,0,68.825)"><g
       id="g4218"
       transform="scale(0.1,0.1)"><path
         d="m 2329.65,440.195 8.07,0 c 3.85,0 5.64,2.868 5.64,6.27 0,2.777 -1.42,5.914 -5.64,5.914 l -8.07,0 0,-12.184 z m 0,-22.304 -6.27,0 0,38.785 15.41,0 c 7.44,0 10.84,-4.832 10.84,-9.672 0,-4.566 -3.49,-8.063 -8.42,-8.957 l 0,-0.18 c 4.84,-0.539 6.55,-2.058 6.81,-9.851 0.09,-1.7 0.63,-7.703 1.52,-10.125 l -6.18,0 c -1.52,2.691 -1.16,7.707 -1.61,12.902 -0.45,4.121 -4.03,4.391 -5.82,4.391 l -6.28,0 0,-17.293 z m -22.38,19.437 c 0,-15.941 12.81,-28.66 28.75,-28.66 15.94,0 28.57,12.719 28.57,28.66 0,15.86 -12.63,28.664 -28.57,28.664 -15.94,0 -28.75,-12.804 -28.75,-28.664 z m 62.34,0.09 c 0,-18.809 -15.06,-33.766 -33.59,-33.766 -18.63,0 -33.77,14.957 -33.77,33.766 0,18.633 15.14,33.59 33.77,33.59 18.53,0 33.59,-14.957 33.59,-33.59"
         style="fill:#59c134;fill-opacity:1;fill-rule:nonzero;stroke:none"
         id="path4220"
         inkscape:connector-curvature="0" /><path
         d="m 727.727,295.711 109.937,0 c 24.973,0 43.215,16.316 43.215,37.449 0,21.598 -18.242,37.922 -43.215,37.922 l -109.937,0 0,-75.371 z m 0,128.184 98.898,0 c 24.488,0 37.445,15.839 37.445,34.082 0,17.765 -12.957,33.597 -37.445,33.597 l -98.898,0 0,-67.679 z m -55.688,-52.813 -36.004,0 0,52.813 36.004,0 0,120.5 160.832,0 c 46.078,0 86.891,-26.887 86.891,-80.657 0,-27.843 -14.407,-49.933 -36.969,-60.011 31.211,-10.086 53.77,-35.051 53.77,-73.457 0,-53.758 -39.848,-87.372 -92.653,-87.372 l -171.871,0 0,128.184"
         style="fill:#59c134;fill-opacity:1;fill-rule:nonzero;stroke:none"
         id="path4222"
         inkscape:connector-curvature="0" /><path
         d="m 1157.35,383.082 c -10.56,35.527 -36.97,54.25 -68.64,54.25 -31.7,0 -57.62,-19.687 -65.78,-54.25 l 134.42,0 z m 46.09,-89.785 c -27.85,-35.039 -66.26,-56.152 -108.02,-56.641 -81.13,0 -128.182,60.969 -128.182,122.418 0,61.449 47.052,122.422 128.182,122.422 48.49,0 120.49,-39.844 120.49,-130.574 l 0,-9.129 -192.98,0 c 2.88,-35.527 36,-60.977 71.05,-60.977 26.88,0 49.93,12.981 67.2,36.012 l 42.26,-23.531"
         style="fill:#59c134;fill-opacity:1;fill-rule:nonzero;stroke:none"
         id="path4224"
         inkscape:connector-curvature="0" /><path
         d="m 1265.81,475.262 49.92,0 0,-29.293 0.96,0 c 13.93,21.609 39.36,35.527 71.04,35.527 48.99,0 90.27,-40.805 90.27,-98.414 l 0,-140.184 -49.92,0 0,129.141 c 0,42.25 -22.09,59.535 -55.22,59.535 -32.17,0 -57.13,-20.66 -57.13,-58.574 l 0,-130.102 -49.92,0 0,232.364"
         style="fill:#59c134;fill-opacity:1;fill-rule:nonzero;stroke:none"
         id="path4226"
         inkscape:connector-curvature="0" /><path
         d="m 1544.21,428.215 -28.33,0 0,47.047 28.33,0 0,61.926 49.92,13.433 0,-75.359 35.54,0 0,-47.047 -35.54,0 0,-185.317 -49.92,0 0,185.317"
         style="fill:#59c134;fill-opacity:1;fill-rule:nonzero;stroke:none"
         id="path4228"
         inkscape:connector-curvature="0" /><path
         d="m 1716.53,544.395 0,-207.883 c 0,-26.887 5.76,-36.496 20.66,-45.129 l 26.88,-15.352 -22.09,-39.375 c -51.37,24.485 -75.38,42.246 -75.38,90.739 l 0,217 49.93,0"
         style="fill:#59c134;fill-opacity:1;fill-rule:nonzero;stroke:none"
         id="path4230"
         inkscape:connector-curvature="0" /><path
         d="m 1966.19,383.082 c -10.56,35.527 -36.98,54.25 -68.65,54.25 -31.69,0 -57.62,-19.687 -65.77,-54.25 l 134.42,0 z m 46.07,-89.785 c -27.83,-35.039 -66.24,-56.152 -108,-56.641 -81.14,0 -128.19,60.969 -128.19,122.418 0,61.449 47.05,122.422 128.19,122.422 48.48,0 120.49,-39.844 120.49,-130.574 l 0,-9.129 -192.98,0 c 2.87,-35.527 35.99,-60.977 71.05,-60.977 26.89,0 49.92,12.981 67.21,36.012 l 42.23,-23.531"
         style="fill:#59c134;fill-opacity:1;fill-rule:nonzero;stroke:none"
         id="path4232"
         inkscape:connector-curvature="0" /><path
         d="m 2066.47,475.262 49.93,0 0,-136.348 c 0,-38.898 24.01,-55.207 54.75,-55.207 38.88,0 57.59,23.996 57.59,60.012 l 0,131.543 49.92,0 0,-225.157 c 0,-71.046 -62.88,-102.265 -106.09,-102.265 -52.32,0 -75.85,19.687 -98.42,45.613 l 42.25,25.918 c 15.86,-15.371 31.69,-24.492 53.3,-24.492 33.13,0 61.91,20.187 61.91,60.969 l 0,12.488 -0.94,0 c -19.68,-22.078 -37.93,-31.68 -70.1,-31.68 -51.85,0 -94.1,38.867 -94.1,104.188 l 0,134.418"
         style="fill:#59c134;fill-opacity:1;fill-rule:nonzero;stroke:none"
         id="path4234"
         inkscape:connector-curvature="0" /><path
         d="m 136.598,237.883 c 35.109,0 208.097,-10.942 211.504,-48.289 5.464,-59.914 -118.164,-75.684 -194.372,-76.395 -27.398,0 -95.0386,8.641 -95.0386,39.649 0,15.129 18.8203,30.988 29.9649,41.09 l 47.9417,43.945"
         style="fill:#59c134;fill-opacity:1;fill-rule:nonzero;stroke:none"
         id="path4236"
         inkscape:connector-curvature="0" /><path
         d="m 428.793,542.57 105.523,0 0,-36.808 c -16.269,17.304 -48.054,31.199 -105.523,36.808"
         style="fill:#142940;fill-opacity:1;fill-rule:nonzero;stroke:none"
         id="path4238"
         inkscape:connector-curvature="0" /><path
         d="m 534.316,417.828 0,-388.8866 -534.144125,0 L 0,76.3203 C 30.3398,60.2383 98.7656,51.957 148.543,50.1836 c 147.496,-5.25 296.57,40.6016 293.941,141.2264 -1.808,69.199 -162,96.809 -260.207,99.356 l 7.059,7.332 c 165.027,-3.938 301.262,18.832 344.98,119.73"
         style="fill:#142940;fill-opacity:1;fill-rule:nonzero;stroke:none"
         id="path4240"
         inkscape:connector-curvature="0" /><path
         d="m 0.171875,204.172 0,338.398 295.488125,0 c -59.32,-3.996 -99.242,-15 -142.57,-27.586 C 126.094,506.039 78.9844,491.328 50.7109,474.688 27.8477,461.254 0.597656,438.945 6.62891,414.824 c 5.82419,-23.289 74.74999,5.781 104.24609,14.028 91.293,25.578 219.098,43.941 238.789,45.386 99.32,5.754 123.309,-19.476 124.164,-35.324 -2.051,-23.66 -43.676,-68.465 -237.195,-90.809 71.074,69.915 77.062,79.301 83.062,91.528 -85.632,0 -125.175,-47.598 -180.832,-93.012 -8.445,-2.125 -70.6872,-2.496 -103.9567,-28.285 -11.6563,-9.012 -28.27739,-17.461 -18.293,-33.254 7.164,-11.383 37.793,-6.035 48.2305,-6.664 C 41.1172,252.078 13.543,220.051 0.171875,204.172"
         style="fill:#142940;fill-opacity:1;fill-rule:nonzero;stroke:none"
         id="path4242"
         inkscape:connector-curvature="0" /><path
         d="m 742.988,109.082 c 0,1.367 -0.136,2.063 -1.367,2.063 -1.23,0 -1.777,-0.696 -2.328,-2.063 l -15.055,-37.7734 20.395,0 -1.645,37.7734 z m 24.231,-81.4336 -18.75,0 c -1.375,0 -2.332,1.0899 -2.332,2.461 l -0.957,22.4492 -28.059,0 -8.898,-22.4492 c -0.547,-1.3711 -1.778,-2.461 -3.145,-2.461 l -19.574,0 c -1.231,0 -1.914,0.6797 -1.914,1.6368 0,0.4101 0.137,0.8242 0.273,1.2343 l 35.313,84.8635 c 5.472,13.144 16.012,15.191 25.457,15.191 9.445,0 19.023,-2.047 19.844,-15.191 l 5.476,-84.8635 0,-0.1367 c 0,-1.6445 -1.23,-2.7344 -2.734,-2.7344"
         style="fill:#142940;fill-opacity:1;fill-rule:nonzero;stroke:none"
         id="path4244"
         inkscape:connector-curvature="0" /><path
         d="m 825.742,88.8281 c -9.996,0 -13.414,-5.4765 -15.332,-16.6992 l -1.777,-10.6758 c -0.41,-2.7304 -0.684,-5.2031 -0.684,-7.2539 0,-6.2969 2.461,-9.582 9.992,-9.582 4.516,0 8.622,0.4141 11.356,0.8242 l 7.531,42.7031 c -3.152,0.4102 -7.805,0.6836 -11.086,0.6836 z m 38.047,43.8009 c 1.922,0 2.879,-0.684 2.465,-2.734 L 849.281,33.9453 c -0.41,-2.1992 -1.093,-3.1523 -4.926,-3.9726 -8.21,-1.9141 -19.16,-3.5547 -29.703,-3.5547 -18.339,0 -28.601,11.6289 -28.601,27.9179 0,2.3243 0.137,4.6563 0.547,7.1172 l 1.777,10.6758 c 4.242,25.1875 16.699,35.0391 40.512,35.0391 2.742,0 7.258,-0.41 11.09,-0.957 l 4.242,23.684 c 0.273,1.503 1.23,2.734 3.148,2.734 l 16.422,0"
         style="fill:#142940;fill-opacity:1;fill-rule:nonzero;stroke:none"
         id="path4246"
         inkscape:connector-curvature="0" /><path
         d="m 949.43,102.93 -28.2,-62.137 c -5.472,-12.1875 -14.371,-14.375 -22.445,-14.375 -8.074,0 -15.879,2.1875 -17.109,14.375 l -6.156,62.137 c 0,0.136 0,0.273 0,0.273 0,1.641 1.23,2.871 2.597,2.871 l 17.383,0 c 1.371,0 2.191,-1.23 2.328,-2.871 l 2.324,-53.66 c 0.137,-2.0547 0.688,-2.8711 1.645,-2.8711 0.957,0 1.777,0.8164 2.598,2.8711 l 21.214,53.66 c 0.688,1.641 2.059,2.871 3.426,2.871 l 18.75,0 c 1.094,0 1.918,-0.82 1.918,-1.914 0,-0.41 -0.137,-0.82 -0.273,-1.23"
         style="fill:#142940;fill-opacity:1;fill-rule:nonzero;stroke:none"
         id="path4248"
         inkscape:connector-curvature="0" /><path
         d="m 989.074,88.9648 c -9.719,0 -13.687,-5.75 -15.601,-16.8359 l -2.465,-14.375 c -0.274,-1.5039 -0.41,-3.0078 -0.41,-4.5117 0,-4.5195 1.644,-8.3477 7.8,-8.3477 4.653,0 9.993,2.1836 14.508,4.793 l 6.707,38.457 c -2.465,0.4102 -6.707,0.8203 -10.539,0.8203 z m 31.206,14.7852 c 3.15,-0.82 3.97,-1.367 3.56,-4.1094 L 1011.8,30.3828 c -0.28,-1.5039 -0.96,-2.7344 -3.15,-2.7344 l -13.962,0 c -1.508,0 -2.602,0.9571 -2.329,2.7344 l 0.547,3.9727 c -7.386,-5.75 -13.961,-7.9375 -21.211,-7.9375 -16.425,0 -23,12.5859 -23,26.2773 0,2.5977 0.274,5.0586 0.684,7.668 0,0 1.785,10.2617 2.195,12.8594 4.106,23.8203 18.887,33.9453 40.375,33.9453 9.311,0 19.441,-1.094 28.331,-3.418"
         style="fill:#142940;fill-opacity:1;fill-rule:nonzero;stroke:none"
         id="path4250"
         inkscape:connector-curvature="0" /><path
         d="m 1104.96,76.1055 -7.94,-45.586 c -0.28,-1.5039 -1.92,-2.8711 -3.42,-2.8711 l -16.56,0 c -1.38,0 -2.2,1.0899 -2.2,2.3243 0,0.1367 0,0.4101 0,0.5468 l 7.94,45.586 c 0.41,2.3242 0.69,4.375 0.69,6.0117 0,5.0703 -3.28,6.7109 -7.39,6.7109 -5.21,0 -11.77,-2.5976 -14.79,-4.3828 l -9.44,-53.9258 c -0.27,-1.5039 -1.78,-2.8711 -3.28,-2.8711 l -16.56,0 c -1.37,0 -2.33,1.0899 -2.33,2.461 0,0.1328 0,0.2734 0,0.4101 l 12.86,72.8205 c 0.28,1.504 1.65,2.734 3.15,2.734 l 14.92,0 c 1.37,0 2.33,-0.957 2.33,-2.324 0,-0.137 0,-0.273 0,-0.41 l -0.55,-3.289 c 6.16,4.656 14.1,7.117 21.35,7.117 11.77,0 22.04,-6.57 22.04,-22.7227 0,-2.5976 -0.28,-5.332 -0.82,-8.3398"
         style="fill:#142940;fill-opacity:1;fill-rule:nonzero;stroke:none"
         id="path4252"
         inkscape:connector-curvature="0" /><path
         d="m 1177.32,105.117 c 2.47,-0.683 2.6,-1.367 2.33,-3.152 l -2.19,-12.1798 c -0.28,-1.5039 -0.55,-2.5977 -3.29,-2.3243 -5.2,0.5469 -8.76,0.9571 -16.56,0.9571 -6.71,0 -11.63,-3.1446 -13.96,-15.8789 l -2.05,-11.4922 c -0.41,-2.6016 -0.69,-4.7969 -0.69,-6.5742 0,-7.3946 3.42,-9.3047 9.17,-9.3047 7.81,0 11.63,0.4062 16.84,0.9531 2.05,0.2773 2.73,-0.8164 2.46,-2.3203 l -2.19,-12.1875 c -0.41,-2.0508 -1.23,-2.5977 -3.42,-3.1445 -3.97,-0.9571 -9.99,-2.0508 -18.2,-2.0508 -16.02,0 -26.97,9.5781 -26.97,26.5508 0,2.5976 0.28,5.1953 0.82,8.0781 l 2.06,11.4922 c 4.51,25.5976 18.06,34.6289 37.91,34.6289 8.21,0 14.23,-1.094 17.93,-2.051"
         style="fill:#142940;fill-opacity:1;fill-rule:nonzero;stroke:none"
         id="path4254"
         inkscape:connector-curvature="0" /><path
         d="m 1199.05,117.703 2.19,12.738 c 0.27,1.504 1.09,2.735 3.29,2.735 l 17.79,0 c 1.64,0 2.6,-0.688 2.19,-2.735 l -2.19,-12.738 c -0.27,-1.504 -1.09,-2.73 -3.29,-2.73 l -17.79,0 c -1.64,0 -2.46,1.093 -2.19,2.73 z m 20.25,-14.363 -12.86,-72.9572 c -0.27,-1.5039 -0.96,-2.7344 -3.29,-2.7344 l -16.69,0 c -1.65,0 -2.47,1.0899 -2.2,2.7344 l 12.87,72.9572 c 0.28,1.504 1.65,2.734 3.15,2.734 l 16.7,0 c 1.5,0 2.6,-0.82 2.32,-2.734"
         style="fill:#142940;fill-opacity:1;fill-rule:nonzero;stroke:none"
         id="path4256"
         inkscape:connector-curvature="0" /><path
         d="m 1301.4,76.1055 -7.94,-45.586 c -0.27,-1.5039 -1.91,-2.8711 -3.42,-2.8711 l -16.56,0 c -1.37,0 -2.2,1.0899 -2.2,2.3243 0,0.1367 0,0.4101 0,0.5468 l 7.94,45.586 c 0.41,2.3242 0.69,4.375 0.69,6.0117 0,5.0703 -3.28,6.7109 -7.38,6.7109 -5.21,0 -11.78,-2.5976 -14.79,-4.3828 l -9.44,-53.9258 c -0.28,-1.5039 -1.78,-2.8711 -3.29,-2.8711 l -16.56,0 c -1.37,0 -2.33,1.0899 -2.33,2.461 0,0.1328 0,0.2734 0,0.4101 l 12.87,72.8205 c 0.27,1.504 1.64,2.734 3.14,2.734 l 14.93,0 c 1.36,0 2.32,-0.957 2.32,-2.324 0,-0.137 0,-0.273 0,-0.41 l -0.55,-3.289 c 6.17,4.656 14.11,7.117 21.35,7.117 11.78,0 22.04,-6.57 22.04,-22.7227 0,-2.5976 -0.27,-5.332 -0.82,-8.3398"
         style="fill:#142940;fill-opacity:1;fill-rule:nonzero;stroke:none"
         id="path4258"
         inkscape:connector-curvature="0" /><path
         d="m 1353.36,88.8281 c -9.71,0 -13.54,-6.9804 -15.32,-16.6992 l -1.65,-9.3086 c -0.41,-2.5937 -0.68,-4.793 -0.68,-6.707 0,-8.3477 4.38,-10.3985 10.96,-10.3985 3.14,0 6.83,0.4063 10.81,0.9571 l 7.25,41.1992 c -2.47,0.4102 -6.16,0.957 -11.37,0.957 z m 35.18,11.0821 -12.72,-72.5391 C 1372.4,7.66797 1360.35,0 1337.77,0 c -11.78,0 -20.81,2.05078 -25.46,3.69141 -1.5,0.54687 -2.2,1.23047 -2.2,2.46875 0,0.41015 0.14,0.6875 0.14,1.09765 l 1.65,9.16799 c 0.27,1.5039 1.37,2.4609 2.87,2.4609 0.14,0 0.14,0 0.27,0 6.03,-0.5469 19.3,-1.6406 25.87,-1.6406 9.45,0 11.63,2.1875 13.14,10.125 l 0.28,1.5078 c -3.84,-0.8203 -7.53,-1.2305 -11.09,-1.2305 -16.56,0 -29.56,8.8946 -29.56,27.2344 0,2.461 0.13,5.0664 0.68,7.9375 l 1.64,9.3086 c 4.52,25.4609 16.43,35.0391 40.52,35.0391 12.45,0 23.26,-2.051 28.47,-3.418 2.73,-0.684 3.69,-1.504 3.69,-2.883 0,-0.269 -0.14,-0.547 -0.14,-0.9568"
         style="fill:#142940;fill-opacity:1;fill-rule:nonzero;stroke:none"
         id="path4260"
         inkscape:connector-curvature="0" /><path
         d="m 1443.91,27.6484 -7.53,0 c -1.36,0 -2.46,1.2305 -2.46,2.7344 l 0,96.3552 c 0,1.367 0.96,2.61 2.46,2.61 l 7.53,0 c 1.37,0 2.47,-1.106 2.47,-2.61 l 0,-96.3552 c 0,-1.3672 -0.96,-2.7344 -2.47,-2.7344"
         style="fill:#142940;fill-opacity:1;fill-rule:nonzero;stroke:none"
         id="path4262"
         inkscape:connector-curvature="0" /><path
         d="m 1525.33,27.6484 -6.57,0 c -1.51,0 -2.74,1.2305 -2.74,2.7344 l 0,45.0274 c 0,13.8281 -4.66,18.0781 -15.06,18.0781 -5.74,0 -12.18,-2.1992 -18.47,-5.3438 l 0,-57.7617 c 0,-1.3672 -1.23,-2.7344 -2.74,-2.7344 l -6.71,0 c -1.36,0 -2.6,1.2305 -2.6,2.7344 l 0,69.8052 c 0,1.503 1.1,2.742 2.6,2.742 l 6.85,0 c 1.5,0 2.6,-1.239 2.6,-2.742 l 0,-2.5982 c 7.53,4.2342 13.69,6.2972 21.76,6.2972 16.43,0 23.81,-10.2659 23.81,-28.4768 l 0,-45.0274 c 0,-1.5039 -1.23,-2.7344 -2.73,-2.7344"
         style="fill:#142940;fill-opacity:1;fill-rule:nonzero;stroke:none"
         id="path4264"
         inkscape:connector-curvature="0" /><path
         d="m 1583.6,122.227 -6.57,0 c -6.43,0 -8.35,-1.914 -8.35,-9.446 l 0,-9.851 14.37,0 c 1.51,0 2.6,-1.106 2.6,-2.469 l 0,-5.3321 c 0,-1.3672 -1.09,-2.3359 -2.6,-2.3359 l -14.37,0 0,-62.4102 c 0,-1.3672 -1.23,-2.7344 -2.6,-2.7344 l -6.71,0 c -1.5,0 -2.73,1.3672 -2.73,2.7344 l 0,62.4102 -13.28,1.5156 c -1.51,0.1367 -2.6,1.0937 -2.6,2.4609 l 0,3.6915 c 0,1.363 1.09,2.469 2.6,2.469 l 13.28,0 0,9.851 c 0,14.641 7.12,19.028 19.16,19.028 3.7,0 5.89,-0.411 7.66,-0.821 1.51,-0.414 2.6,-0.957 2.6,-2.187 l 0,-4.524 c 0,-1.504 -0.96,-2.05 -2.46,-2.05"
         style="fill:#142940;fill-opacity:1;fill-rule:nonzero;stroke:none"
         id="path4266"
         inkscape:connector-curvature="0" /><path
         d="m 1632.43,93.4883 c -6.29,0 -12.04,-1.6524 -18.89,-5.7539 l 0,-57.3516 c 0,-1.3672 -1.23,-2.7344 -2.73,-2.7344 l -6.71,0 c -1.37,0 -2.6,1.2305 -2.6,2.7344 l 0,69.8052 c 0,1.503 1.09,2.742 2.6,2.742 l 6.43,0 c 1.51,0 2.6,-1.239 2.6,-2.742 l 0,-2.8716 c 6.85,4.7856 13.15,6.5706 19.3,6.5706 1.92,0 2.88,-0.821 2.88,-2.469 l 0,-5.6055 c 0,-1.5039 -0.96,-2.3242 -2.88,-2.3242"
         style="fill:#142940;fill-opacity:1;fill-rule:nonzero;stroke:none"
         id="path4268"
         inkscape:connector-curvature="0" /><path
         d="m 1687.7,64.0547 -10.13,0 c -16.56,0 -20.94,-3.6914 -20.94,-13.4102 l 0,-1.6523 c 0,-9.8516 4.65,-12.4492 12.59,-12.4492 6.3,0 11.91,1.914 18.48,5.4804 l 0,22.0313 z m 9.31,-36.4063 -6.3,0 c -1.51,0 -2.74,1.2305 -2.74,2.7344 l 0,3.0156 c -6.57,-3.8359 -13.41,-6.707 -21.07,-6.707 -11.64,0 -22.31,5.0547 -22.31,22.168 l 0,1.6484 c 0,14.7735 8.62,22.168 32.98,22.168 l 10.13,0 0,5.4805 c 0,11.4921 -3.97,15.4648 -14.65,15.4648 -8.89,0 -15.47,-0.5547 -20.94,-1.1016 -0.27,0 -0.41,0 -0.68,0 -1.23,0 -2.46,0.4102 -2.46,2.1993 l 0,4.7851 c 0,1.5041 0.96,2.3201 2.87,2.5981 5.61,0.964 11.91,1.785 21.21,1.785 19.03,0 26.69,-9.5784 26.69,-25.7307 l 0,-47.7735 c 0,-1.5039 -1.23,-2.7344 -2.73,-2.7344"
         style="fill:#142940;fill-opacity:1;fill-rule:nonzero;stroke:none"
         id="path4270"
         inkscape:connector-curvature="0" /><path
         d="m 1743.09,26.6914 c -5.06,0 -14.91,0.4102 -21.62,2.0469 -1.78,0.414 -2.87,1.2344 -2.87,2.7383 l 0,4.7929 c 0,1.2305 1.09,2.0508 2.46,2.0508 0.27,0 0.41,0 0.55,0 6.57,-0.8203 16.56,-1.5039 21.48,-1.5039 8.9,0 13.56,2.3242 13.56,9.7149 0,4.1132 -2.46,6.7109 -10.27,11.3593 l -13.83,8.2149 c -8.35,5.0664 -13.95,10.957 -13.95,19.5781 0,14.2266 10.67,18.2034 24.76,18.2034 7.67,0 14.93,-0.684 21.36,-1.785 1.78,-0.278 2.6,-1.235 2.6,-2.7387 l 0,-4.5078 c 0,-1.6524 -0.96,-2.336 -2.32,-2.336 -0.14,0 -0.28,0 -0.41,0 -4.8,0.4102 -13.56,1.1016 -21.23,1.1016 -7.66,0 -12.72,-0.9648 -12.72,-7.9375 0,-4.1133 3.14,-6.707 9.44,-10.4102 l 13.56,-8.0664 c 11.36,-6.7109 15.05,-12.5976 15.05,-20.6757 0,-13.9532 -10.27,-19.8399 -25.6,-19.8399"
         style="fill:#142940;fill-opacity:1;fill-rule:nonzero;stroke:none"
         id="path4272"
         inkscape:connector-curvature="0" /><path
         d="m 1823.27,27.3711 c -2.75,-0.4063 -6.3,-0.6797 -8.9,-0.6797 -12.6,0 -18.62,3.2813 -18.62,18.3399 l 0,47.7617 -13.27,1.5156 c -1.51,0.1367 -2.6,0.957 -2.6,2.4609 l 0,3.6915 c 0,1.504 1.09,2.469 2.6,2.469 l 13.27,0 0,13.41 c 0,1.363 0.96,2.461 2.47,2.73 l 7.12,1.106 c 0.13,0 0.27,0 0.41,0 1.09,0 2.05,-0.965 2.05,-2.332 l 0,-14.914 14.78,0 c 1.51,0 2.74,-1.239 2.74,-2.742 l 0,-4.6528 c 0,-1.5039 -1.23,-2.7422 -2.74,-2.7422 l -14.78,0 0,-47.7617 c 0,-7.5313 1.91,-8.625 7.39,-8.625 l 7.67,0 c 1.91,0 2.87,-0.5469 2.87,-1.9141 l 0,-4.7969 c 0,-1.2265 -0.69,-2.0469 -2.46,-2.3242"
         style="fill:#142940;fill-opacity:1;fill-rule:nonzero;stroke:none"
         id="path4274"
         inkscape:connector-curvature="0" /><path
         d="m 1872.1,93.4883 c -6.3,0 -12.06,-1.6524 -18.89,-5.7539 l 0,-57.3516 c 0,-1.3672 -1.23,-2.7344 -2.75,-2.7344 l -6.69,0 c -1.38,0 -2.61,1.2305 -2.61,2.7344 l 0,69.8052 c 0,1.503 1.09,2.742 2.61,2.742 l 6.42,0 c 1.51,0 2.61,-1.239 2.61,-2.742 l 0,-2.8716 c 6.83,4.7856 13.13,6.5706 19.3,6.5706 1.91,0 2.87,-0.821 2.87,-2.469 l 0,-5.6055 c 0,-1.5039 -0.96,-2.3242 -2.87,-2.3242"
         style="fill:#142940;fill-opacity:1;fill-rule:nonzero;stroke:none"
         id="path4276"
         inkscape:connector-curvature="0" /><path
         d="m 1945.7,27.6484 -6.85,0 c -1.5,0 -2.59,1.2305 -2.59,2.7344 l 0,2.6055 c -7.53,-4.25 -13.7,-6.2969 -21.76,-6.2969 -16.43,0 -23.82,10.2617 -23.82,28.4649 l 0,45.0317 c 0,1.503 1.23,2.742 2.73,2.742 l 6.58,0 c 1.5,0 2.73,-1.239 2.73,-2.742 l 0,-45.0317 c 0,-13.8165 4.66,-18.0665 15.06,-18.0665 5.75,0 12.18,2.1875 18.48,5.3438 l 0,57.7544 c 0,1.367 1.23,2.742 2.73,2.742 l 6.71,0 c 1.37,0 2.6,-1.239 2.6,-2.742 l 0,-69.8052 c 0,-1.5039 -1.1,-2.7344 -2.6,-2.7344"
         style="fill:#142940;fill-opacity:1;fill-rule:nonzero;stroke:none"
         id="path4278"
         inkscape:connector-curvature="0" /><path
         d="m 2013.41,28.1953 c -4.52,-0.8242 -10.67,-1.5039 -17.11,-1.5039 -18.61,0 -29.15,13.1328 -29.15,33.2578 l 0,10.6758 c 0,20.1172 10.4,33.262 29.15,33.262 6.3,0 12.59,-0.684 17.11,-1.504 2.19,-0.418 2.74,-1.102 2.74,-3.0197 l 0,-4.918 c 0,-1.3789 -1.1,-2.0625 -2.33,-2.0625 -0.27,0 -0.41,0 -0.54,0 -6.03,0.6836 -10.27,0.9688 -16.98,0.9688 -10.94,0 -17.11,-7.2578 -17.11,-22.7266 l 0,-10.6758 c 0,-15.332 6.03,-22.7226 17.11,-22.7226 6.71,0 10.95,0.2734 16.98,0.957 0.13,0 0.27,0 0.54,0 1.23,0 2.33,-0.6836 2.33,-2.0508 l 0,-4.9336 c 0,-1.7734 -0.55,-2.5937 -2.74,-3.0039"
         style="fill:#142940;fill-opacity:1;fill-rule:nonzero;stroke:none"
         id="path4280"
         inkscape:connector-curvature="0" /><path
         d="m 2071.69,27.3711 c -2.75,-0.4063 -6.3,-0.6797 -8.9,-0.6797 -12.6,0 -18.62,3.2813 -18.62,18.3399 l 0,47.7617 -13.28,1.5156 c -1.5,0.1367 -2.59,0.957 -2.59,2.4609 l 0,3.6915 c 0,1.504 1.09,2.469 2.59,2.469 l 13.28,0 0,13.41 c 0,1.363 0.96,2.461 2.47,2.73 l 7.12,1.106 c 0.13,0 0.27,0 0.41,0 1.09,0 2.05,-0.965 2.05,-2.332 l 0,-14.914 14.78,0 c 1.51,0 2.74,-1.239 2.74,-2.742 l 0,-4.6528 c 0,-1.5039 -1.23,-2.7422 -2.74,-2.7422 l -14.78,0 0,-47.7617 c 0,-7.5313 1.91,-8.625 7.39,-8.625 l 7.67,0 c 1.91,0 2.87,-0.5469 2.87,-1.9141 l 0,-4.7969 c 0,-1.2265 -0.69,-2.0469 -2.46,-2.3242"
         style="fill:#142940;fill-opacity:1;fill-rule:nonzero;stroke:none"
         id="path4282"
         inkscape:connector-curvature="0" /><path
         d="m 2144.61,27.6484 -6.85,0 c -1.5,0 -2.6,1.2305 -2.6,2.7344 l 0,2.6055 c -7.53,-4.25 -13.69,-6.2969 -21.77,-6.2969 -16.42,0 -23.81,10.2617 -23.81,28.4649 l 0,45.0317 c 0,1.503 1.23,2.742 2.74,2.742 l 6.56,0 c 1.52,0 2.75,-1.239 2.75,-2.742 l 0,-45.0317 c 0,-13.8165 4.65,-18.0665 15.05,-18.0665 5.75,0 12.18,2.1875 18.48,5.3438 l 0,57.7544 c 0,1.367 1.23,2.742 2.74,2.742 l 6.71,0 c 1.36,0 2.59,-1.239 2.59,-2.742 l 0,-69.8052 c 0,-1.5039 -1.09,-2.7344 -2.59,-2.7344"
         style="fill:#142940;fill-opacity:1;fill-rule:nonzero;stroke:none"
         id="path4284"
         inkscape:connector-curvature="0" /><path
         d="m 2199.45,93.4883 c -6.3,0 -12.05,-1.6524 -18.89,-5.7539 l 0,-57.3516 c 0,-1.3672 -1.23,-2.7344 -2.74,-2.7344 l -6.7,0 c -1.38,0 -2.61,1.2305 -2.61,2.7344 l 0,69.8052 c 0,1.503 1.1,2.742 2.61,2.742 l 6.42,0 c 1.52,0 2.61,-1.239 2.61,-2.742 l 0,-2.8716 c 6.84,4.7856 13.14,6.5706 19.3,6.5706 1.91,0 2.87,-0.821 2.87,-2.469 l 0,-5.6055 c 0,-1.5039 -0.96,-2.3242 -2.87,-2.3242"
         style="fill:#142940;fill-opacity:1;fill-rule:nonzero;stroke:none"
         id="path4286"
         inkscape:connector-curvature="0" /><path
         d="m 2260.6,71.8555 c 0,15.4687 -5.89,21.4961 -17.93,21.4961 -11.77,0 -18.34,-6.711 -18.34,-21.4961 l 0,-1.2305 36.27,0 0,1.2305 z m 9.58,-10.4024 -45.85,0 0,-1.9101 c 0,-16.2891 6.44,-22.3164 19.03,-22.3164 7.93,0 18.06,0.5468 24.36,1.5039 0.27,0 0.41,0 0.68,0 1.1,0 2.19,-0.5469 2.19,-1.9141 l 0,-4.6484 c 0,-1.7852 -0.55,-2.7422 -2.73,-3.1524 -7.81,-1.5039 -15.33,-2.3242 -24.5,-2.3242 -15.75,0 -31.07,7.3906 -31.07,32.8516 l 0,12.3125 c 0,19.5703 10.81,32.0315 30.38,32.0315 19.98,0 30.11,-12.5979 30.11,-32.0315 l 0,-7.3907 c 0,-1.7773 -0.96,-3.0117 -2.6,-3.0117"
         style="fill:#142940;fill-opacity:1;fill-rule:nonzero;stroke:none"
         id="path4288"
         inkscape:connector-curvature="0" /></g></g></svg>